# xmcd CD database file
#
# Track frame offsets:
#	150
#	23720
#	45325
#
# Disc length: 917 seconds
#
# Revision: 0
# Processed by: cddbd v1.5.1PL0 Copyright (c) Steve Scherf et al.
# Submitted via: CDex 1.51
#
DISCID=16039303
DTITLE=観月ありさ - 君が好きだから
DYEAR=1993
DGENRE=JPop
TTITLE0=君が好きだから
TTITLE1=唄ってあげたい
TTITLE2=君が好きだから(カラオケ)
EXTD=YEAR: 1993
EXTT0=
EXTT1=
EXTT2=
PLAYORDER=
